   <svg xmlns="http://www.w3.org/2000/svg"  width="178px" height="161px">
                    <style>
                        .logo_header_svg__st1 {
                            display: inline
                        }

                        .logo_header_svg__st3 {
                            fill: #2b572a
                        }

                        .logo_header_svg__st4 {
                            fill: #fcb217
                        }

                        .logo_header_svg__st6 {
                            fill: #fff
                        }
                    </style>
                    <g id="logo_header_svg__Smaller">
                        <g id="logo_header_svg__XMLID_426_">
                            <g id="logo_header_svg__XMLID_405_">
                                <path id="logo_header_svg__XMLID_400_" class="logo_header_svg__st6" d="M47.8 139.5l12.8-5.3.2-27.2-13.1-25.5v19.6z"></path>
                                <circle id="logo_header_svg__XMLID_235_" class="logo_header_svg__st6" cx="86.7" cy="79.1" r="39.1"></circle>
                            </g>
                            <g id="logo_header_svg__XMLID_161_">
                                <g id="logo_header_svg__XMLID_407_">
                                    <path id="logo_header_svg__XMLID_425_" class="logo_header_svg__st3" d="M70.4 97.4c.2 0 .2-.2.2-.3 1.4-2.6 2.7-5.2 4.3-7.7 1.9-2.9 3.9-5.7 6.1-8.4 2.1-2.5 4.4-4.8 7-6.9 2.5-2 5.2-3.6 8.3-4.6 2.1-.7 4.2-1.1 6.4-1.1.9 0 1.7 0 2.6.2.3.1.6.2.9.4a38 38 0 005.7 4.2c.3.2.6.4.6.9 1.1 5.7.4 11.3-2.2 16.5-4 7.9-10.4 12.9-19.1 14.4-9.4 1.6-17.5-1.2-24.1-8.2-3.8-4.1-6.1-9-6.7-14.6-1-9.4 2.1-17.2 9.2-23.4 4.2-3.6 9.1-5.6 14.6-6.1 4.5-.4 8.9.3 13.1 2.1.4.2.6.3.6.8.1.8.3 1.6.6 2.5-.7.2-1.4.3-2.1.5-2.8.8-5.4 2.1-7.8 3.9-2.9 2.1-5.4 4.7-7.5 7.6-3.1 4.3-5.5 9.1-7.3 14.1-1.4 3.8-2.4 7.7-3.3 11.7.1.5-.1 1-.1 1.5-.1 0-.1.1-.1.1.1 0 .2 0 .1-.1z"></path>
                                    <path id="logo_header_svg__XMLID_424_" class="logo_header_svg__st4" d="M102.9 27.4l6.3-2.7c7.6-3.3 15.2-6.5 22.7-9.8 4.4-1.9 8.7-3.8 13.1-5.6 4.9-2.1 9.9-4.3 14.8-6.4 1.6-.7 3.3-.8 5-.3 1.3.4 2 1.3 2.2 2.7.2 1.3-.2 2.5-.5 3.7 0 .1-.2.3-.3.4-4.3 5.3-8.5 10.5-12.8 15.8-2.5 3.1-4.9 6.1-7.4 9.2-3.9 4.7-7.7 9.5-11.6 14.2-1.5 1.9-3.1 3.8-4.6 5.6h-.2c-1.8-.5-3.5-.9-5.4-.9-.3 0-.4-.2-.6-.4-1-1.8-2.2-3.3-3.7-4.6-.3-.3-.5-.6-.4-1 .4-1.9.4-3.9.1-5.9-.5-3.1-1.7-5.8-3.9-8.1s-5-3.7-8-4.6c-1.5-.7-3.1-1.1-4.8-1.3z"></path>
                                    <path id="logo_header_svg__XMLID_423_" class="logo_header_svg__st4" d="M47.8 100.8c0 1.1.1 2.2 0 3.2 0 .6-.1 1.3-.1 1.9 0 9 .1 18 .1 27 0 2 0 4 .1 6 0 .4-.1.6-.5.8-3.9 1.6-7.8 3.3-11.7 5-6.3 2.6-12.5 5.3-18.8 7.9-2.6 1.1-5.1 2.2-7.7 3.3-1.2.5-2.5.4-3.6-.1-.9-.4-1.5-1.2-1.8-2.1-.2-.6-.3-1.2-.3-1.8-.1-1.6 0-1.7 1-2.9 2.8-3.3 5.7-6.5 8.6-9.8 3.1-3.5 6.2-6.9 9.3-10.4l7.8-8.7c2.5-2.8 5-5.6 7.5-8.3 2.5-2.8 5.1-5.6 7.6-8.5.8-.8 1.5-1.7 2.3-2.6.1.1.1.1.2.1z"></path>
                                    <path id="logo_header_svg__XMLID_419_" class="logo_header_svg__st3" d="M102.9 27.4c1.7.2 3.3.5 4.9 1 3 1 5.8 2.3 8 4.6s3.4 5 3.9 8.1c.3 2 .3 3.9-.1 5.9-.1.4 0 .7.4 1 1.5 1.3 2.7 2.9 3.7 4.6.1.3.3.4.6.4 1.8 0 3.6.3 5.4.9h.2c1 .4 2 .8 2.9 1.4 2.4 1.4 4.2 3.3 5.4 5.7 1 1.9 1.6 3.9 1.9 5.9.3 2.1.4 4.2.1 6.3-.1 1.2-.4 2.5-.8 3.6-.2.6 0 .9.7.9 1.8 0 3.7-.1 5.5 0 1.4 0 2.6-.2 3.8-.8.4-.2.8-.4 1.2-.5.4-.1.6-.5.7-.9.1.5.1 1 .6 1.2 0 .1 0 .1-.1.1-.4-.2-.7-.1-1 .1-.9.5-1.8 1-2.7 1.6-.2.1-.4.2-.6.2-2.7.3-5.3.6-8 .9-.4 0-.7 0-.9-.3-.2 0-.2.1-.3.2-1.1 2.3-2.6 4.3-4.4 6.1-.1.1-.1.1-.1.2-.2.1-.3.3-.5.4-.8.8-1.6 1.5-2.5 2.3-1.9 1.6-3.9 3.1-6 4.6-.9.6-1.8 1.3-2.8 1.9-.1 0-.1 0-.1.1-.2 0-.2.1-.4.2-1.9 1.3-3.8 2.7-5.7 4.1-.2.2-.5.3-.8.5-3.6 2.6-7.1 5.2-10.3 8.2-2.5 2.2-4.8 4.6-7 7.1-.4.5-.9.9-1.2 1.5l-1.5 1.8c-.3.4-.8.8-.9 1.4-.5.4-.8 1-1.1 1.5-1.5 2.2-3 4.5-4.3 6.8 0 .1-.1.1-.2.2.5-1 1-2 1.5-2.9.9-1.6 1.9-3.2 3-4.7 0-.1.1-.1 0-.2.1.1.1-.1.2-.1l2.4-3.3c.5-.4.8-.9 1.2-1.4 1.5-1.9 3.2-3.7 4.9-5.4 2.9-3 6.1-5.8 9.4-8.4 1.2-1 2.5-1.9 3.7-2.9.6-.5 1.2-1 1.8-1.4 2-1.3 3.9-2.8 5.8-4.1.2-.1.3-.3.5-.4.1 0 .1-.1.1-.2.2 0 .3-.1.4-.2 1.1-.8 2.2-1.7 3.3-2.5 1.8-1.3 3.4-2.8 5-4.3.4-.3.7-.7 1-1.1.2 0 .3-.2.4-.3 1.5-1.7 2.9-3.6 3.8-5.7.2-.4.2-.4-.2-.7l-6.9-5.7c-.2-.2-.4-.3-.7-.3-2.6-.4-5.2-.8-7.9-1.1-.7-.1-1.4-.2-2-.3-.2 0-.4 0-.6.1-1.9 1.5-3.9 1.4-5.9.4-1.7-.8-3.1-1.9-4.4-3.2-2.7-2.6-5.1-5.6-7-8.8-1-1.6-1.7-3.3-2-5.2-.2-1.8.3-3.4 1.7-4.6.2-.2.4-.3.4-.6.1-1.7.2-3.5.3-5.2v-.2c0-.1.1-.2.1-.3.1-1.3.2-2.7.3-4 0-.4-.1-.8-.3-1.2l-2.7-5.1c-.5-1-1-2-1.6-2.9 0-.2-.2-.2-.4-.2-.3.1-.6.1-.9.2-1.9.5-3.6 1.2-5.3 2.2-.9.5-1.9 1-2.7 1.8h-.1c-.9.6-1.7 1.2-2.5 1.8-1.5 1.2-3 2.4-4.4 3.7-.5.5-1.1.8-1.5 1.4-.1 0-.1 0-.2.1-.8.6-1.4 1.3-2.2 1.9-.7.6-1.4 1.3-2.1 1.9-2.9 2.6-5.8 5.2-8.9 7.6-2.2 1.7-4.5 3.3-6.8 4.9-2.4 1.6-4.9 3-7.5 4.3-.1.1-.2.1-.3.2-.1 0-.1 0-.1.1-.1 0-.2 0-.3.1-1.4.6-2.7 1.3-4.1 1.9-2 .8-4.1 1.6-6.2 2.3-.4.1-.8.3-1.3.3 0-.1.1-.1.2-.2 2.3-.8 4.6-1.6 6.9-2.6 1.9-.8 3.7-1.7 5.5-2.7.2-.1.4-.1.5-.2 2.8-1.6 5.5-3.3 8.2-5.1 3-2.2 5.9-4.5 8.7-6.9 1-.8 1.9-1.8 2.8-2.6 1.5-1.3 2.9-2.7 4.3-4 .2-.1.4-.3.4-.5.1 0 .1-.1.2-.1 1.8-1.6 3.5-3.3 5.3-4.9.1-.1.1-.1.1-.2.1.1.2 0 .3-.1l3-2.4c1.8-1.5 3.8-2.8 5.9-3.9 1.4-.7 2.9-1.3 4.4-1.7.2 0 .3 0 .5-.2-.3-.4-.1-.7 0-1.1.8-2.4 1.6-4.9 2.4-7.3.1-.4.3-.6.5-.9.6-.7 1.2-1.3 1.8-2 .3-.4.6-.7.3-1.2h.1c.2.5.5.9 1.1.9-.1.2-.3.1-.4.1-.2 0-.4.1-.5.3-.6.9-1.3 1.8-1.9 2.6-.1.2-.2.4-.2.7-.5 2.2-.9 4.4-1.4 6.5 0 .1 0 .2-.1.4-.1.7 0 .8.7.8 1.2-.6 2.4-.6 3.6-.6zm19.8 35.4c-.4 1.2-.7 2.4-1.1 3.6-.1.4-.1.4.3.5.8.2 1.6.4 2.5.6 2 .5 4.1 1 6.1 1.5.4.1.7.2 1 .5 2 2 3.9 4 5.9 6 .2.2.4.4.7.6.1-.3.2-.6.2-1 .7-3.7.4-7.3-.8-10.8-1.1-3.2-3.2-5.7-6.3-7.2-.9-.5-1.9-.9-2.9-1-.1-.1-.3-.1-.4-.2-.9-.2-1.8-.3-2.7-.4-.6 0-.6 0-.8.6-.1.2-.1.4-.2.6-.3.6-.5 1.2-.8 1.8-.4.7-.6 1.3-.4 2.1 0 .8-.2 1.5-.3 2.2zm-17.1-17.7c0 .7 0 1.4.1 2.2l3-.3h.2c1.3-.1 2.6-.2 3.8.4.2.1.3 0 .5 0 .6-.1 1.2-.3 1.8-.4.6-.1 1.2-.3 1.9-.3.5 0 .6 0 .6-.5.2-1.3.3-2.5.2-3.8-.3-4.7-2.6-8.2-6.7-10.6-2.5-1.4-5.3-2.3-8.2-2.6-.9-.1-1.8-.2-2.8 0 0 .3.2.4.3.6 1.6 2.5 3.2 4.9 4.9 7.4.1.2.2.4.2.7 0 1 .1 2 .1 3 0 1.4 0 2.8.1 4.2z"></path>
                                    <path id="logo_header_svg__XMLID_418_" class="logo_header_svg__st4" d="M52.3 60.8c-1.8 1-3.6 1.9-5.5 2.7-2.2 1-4.5 1.8-6.9 2.6-.1 0-.2 0-.2.2.5 0 .9-.2 1.3-.3 2.1-.6 4.2-1.4 6.2-2.3 1.4-.6 2.7-1.2 4.1-1.9.1 0 .2-.1.3-.1.1.2-.1.4-.2.6-1.8 3.8-3 7.8-3.5 12-.1.6-.1 1.2-.2 1.9 0 .2 0 .4-.1.6-.2 0-.3-.1-.4-.2-2.5-1.7-4.9-3.3-7.4-5-3-2-6-4.1-9.1-6.1-1.1-.7-1.8-1.6-2.1-2.9-.3-1.3.1-2.3 1-3.2.5-.5 1.1-.8 1.7-1 5.2-2.2 10.4-4.5 15.6-6.7C56 47.8 65.1 43.9 74.1 40c2.7-1.1 5.3-2.3 8-3.4.1-.1.3-.2.5-.1 0 .1 0 .2-.1.2-1.8 1.6-3.5 3.3-5.3 4.9-.1 0-.2 0-.2.1-.2-.1-.4 0-.6.1C66.7 44.2 59 50 53.5 58.7c-.4.7-.9 1.3-1.2 2.1z"></path>
                                    <path id="logo_header_svg__XMLID_417_" class="logo_header_svg__st4" d="M95.7 117l-2.4 3.3c-.1 0-.2 0-.2.1-.2-.1-.3 0-.5.1-7.8 3.3-15.7 6.6-23.5 10-2.6 1.1-5.3 2.2-7.9 3.4-.2.1-.4.2-.6.2-.1-8.7 0-17.3-.1-25.9.3-.1.3.1.5.2 5 4.4 10.7 7.3 17.2 8.7 3.6.8 7.2 1.1 10.8.9 2.1-.1 4.2-.4 6.3-.9.1 0 .3 0 .4-.1z"></path>
                                    <path id="logo_header_svg__XMLID_416_" class="logo_header_svg__st4" d="M122.1 95.1c.9-.6 1.8-1.3 2.8-1.9 2.1-1.4 4.1-2.9 6-4.6.9-.7 1.7-1.5 2.5-2.3.2-.2.3-.3.5-.4 2 2.4 4.1 4.7 6.1 7.1.6.7 1.3 1.3 1.7 2.2.5 1.1.8 2.2.3 3.5-.2.5-.5.9-.9 1.2-.4.3-.9.6-1.3.8-5.3 2.2-10.5 4.5-15.8 6.7-6.3 2.7-12.6 5.3-18.9 8-3.4 1.4-6.8 2.9-10.2 4.3-.2.1-.4.2-.7.2.2-.5.6-.9.9-1.4.4-.6 1-1.2 1.5-1.8.2 0 .4 0 .6-.1 11.3-3.3 19.5-10.3 24.7-20.9.1-.2.2-.3.1-.6.1.2.1.1.1 0z"></path>
                                    <path id="logo_header_svg__XMLID_415_" class="logo_header_svg__st4" d="M79.9 40.7c.4-.6 1-.9 1.5-1.4 1.4-1.3 2.9-2.6 4.4-3.7.8-.6 1.7-1.3 2.5-1.8h.1c.2-.1.5-.2.7-.3 1.1-.5 2.2-1 3.4-1.4 1.7-.8 3.5-1.5 5.2-2.3.6.9 1.1 1.9 1.6 2.9l2.7 5.1c.2.4.3.8.3 1.2-.1 1.3-.2 2.7-.3 4 0 .1-.1.2-.1.3-2-.8-4-1.5-6.1-2-2-.5-4.1-.8-6.1-.9-3-.2-6.1-.1-9.1.4-.3-.1-.5-.1-.7-.1z"></path>
                                    <path id="logo_header_svg__XMLID_414_" class="logo_header_svg__st4" d="M132.8 84.7c-.2.5-.6.8-1 1.1-1.6 1.5-3.2 3-5 4.3-1.1.8-2.2 1.6-3.3 2.5-.1.1-.2.2-.4.2-.1-.2 0-.3.1-.5 1.1-3.1 1.8-6.3 2.1-9.6.2-2 .3-4 .1-6v-.6c.7.8 1.3 1.5 1.9 2.2 1.7 2 3.4 3.9 5.1 5.9.2.2.3.3.4.5z"></path>
                                    <path id="logo_header_svg__XMLID_413_" class="logo_header_svg__st4" d="M83 36c-.1.1-.1.2-.3.1.1 0 .2-.1.3-.1z"></path>
                                    <path id="logo_header_svg__XMLID_412_" class="logo_header_svg__st4" d="M79.7 40.7c0-.1.1-.1.2-.1 0 .2-.1.1-.2.1z"></path>
                                    <path id="logo_header_svg__XMLID_411_" class="logo_header_svg__st4" d="M51.7 61.7c0-.1 0-.1.1-.1 0 0 0 .1-.1.1z"></path>
                                    <path id="logo_header_svg__XMLID_410_" class="logo_header_svg__st4" d="M123.2 92.8c0 .1 0 .1-.1.2 0-.1 0-.2.1-.2z"></path>
                                    <path id="logo_header_svg__XMLID_409_" class="logo_header_svg__st4" d="M105.6 45.1c-.1-1.4-.1-2.8-.2-4.2 0-1-.1-2-.1-3 0-.3-.1-.5-.2-.7-1.6-2.5-3.3-4.9-4.9-7.4-.1-.2-.3-.3-.3-.6.9-.1 1.8-.1 2.8 0 2.9.3 5.6 1.2 8.2 2.6 4.1 2.3 6.4 5.8 6.7 10.6.1 1.3 0 2.5-.2 3.8-.1.5-.1.6-.6.5-.7 0-1.3.2-1.9.3-.6.1-1.2.3-1.8.4-.2 0-.3.1-.5 0-1.2-.6-2.5-.6-3.8-.4h-.2c-.9-.7-1.9-1.4-3-1.9z"></path>
                                    <path id="logo_header_svg__XMLID_408_" class="logo_header_svg__st4" d="M128.2 56.1c-1.5 1.9-3 3.7-4.6 5.6-.3.4-.6.8-.9 1.1.1-.7.3-1.4.1-2.1-.2-.8 0-1.4.4-2.1.3-.6.6-1.2.8-1.8.1-.2.2-.4.2-.6.2-.6.2-.7.8-.6.9 0 1.8.2 2.7.4.2-.1.4-.1.5.1z"></path>
                                </g>
                            </g>
                        </g>
                    </g>
                </svg>